<svg width="273" height="172" viewBox="0 0 273 172" fill="none" xmlns="http://www.w3.org/2000/svg">
<path d="M4.65194 7.31945L16.6566 -12.0428C21.8776 -20.4638 30.9197 -25.7638 40.8181 -26.2049L274.164 -36.6036C291.24 -37.3645 305.5 -23.7261 305.5 -6.63334V123.063C305.5 135.886 297.351 147.291 285.22 151.445L273.914 155.317C270.665 156.43 267.641 158.118 264.988 160.3L258.933 165.282C239.587 181.198 211.12 163.313 217.061 138.977L222.417 117.043C227.808 94.9602 199.328 81.0798 185.257 98.9323L180.653 104.772C168.15 120.635 142.762 109.101 146.484 89.2495C150.07 70.1263 126.335 58.291 113.219 72.662L105.681 80.9212C91.3663 96.6058 65.4951 83.4283 69.7643 62.627C73.1958 45.9076 56.2269 32.3452 40.675 39.3774L35.0242 41.9326C13.3614 51.7279 -7.87574 27.5254 4.65194 7.31945Z" fill="#32110D"/>
</svg>
